<?xml version="1.0" encoding="UTF-8"?>
<svg id="Layer_2" data-name="Layer 2" xmlns="http://www.w3.org/2000/svg" viewBox="0 0 36.97 39.46">
  <defs>
    <style>
      .cls-1 {
        fill: #0ea5e9;
      }
    </style>
  </defs>
  <g id="Layer_1-2" data-name="Layer 1">
    <path class="cls-1" d="M36.89,12.52l.07,14.24c.05,9.54-4.37,12.61-13.32,12.65l-10.2.05c-8.88.04-13.33-2.98-13.38-12.52L0,12.7C-.05,3.1,4.38.1,13.25.05L23.45,0c8.94-.04,13.39,2.91,13.44,12.52ZM22.46,5.58l-11.33,11.33c-3.37,3.37-3.5,8.85-.2,12.27-.3.14-.58.32-.83.57-1.09,1.09-1.09,2.86,0,3.95,1.09,1.09,2.86,1.09,3.95,0,.6-.6.87-1.4.81-2.18,2.92.81,6.18.07,8.47-2.23,2.87-2.87,3.31-7.25,1.33-10.58-.31-.71-1.02-2.62-.58-5.05.39-2.18,1.51-3.65,2.15-4.35.13-.15.13-.37-.01-.51l-3.22-3.22c-.15-.15-.38-.15-.53,0ZM20.44,26.56c-1.84,1.84-4.83,1.84-6.67,0-1.84-1.84-1.84-4.83,0-6.67s4.83-1.84,6.67,0,1.84,4.83,0,6.67Z"/>
  </g>
</svg>