<?xml version="1.0" encoding="UTF-8"?>
<svg id="Layer_2" data-name="Layer 2" xmlns="http://www.w3.org/2000/svg" viewBox="0 0 80.32 43.32">
  <defs>
    <style>
      .cls-1 {
        fill: #2a285e;
      }
    </style>
  </defs>
  <g id="Layer_2-2" data-name="Layer 2">
    <g id="Layer_1-2" data-name="Layer 1-2">
      <g>
        <g>
          <path class="cls-1" d="M11.13,16.85c-.06.27-.27.41-.51.42l-4.61.02c-.19,0-.41-.04-.5-.41-.21-1.16-2.39-11.62-2.39-11.62l3.99-.02,1.34,8.63h.14l1.32-8.64,3.97-.02,1.41,8.63h.14l1.28-8.64,3.97-.02s-2.05,10.48-2.28,11.64c-.06.37-.31.41-.49.42l-4.59.02c-.27,0-.48-.14-.52-.41l-.86-6.09h-.04l-.77,6.1h0Z"/>
          <path class="cls-1" d="M21.32,1.91l3.64-.02.02,4.07c.91-.46,2.04-.94,2.97-.94h.5c2.69,0,4.05.7,4.07,3.63l.04,8.45-3.64.02-.04-8.08c0-.78-.36-1.05-1.12-1.05h-.39c-.68,0-1.44.28-2.37.49l.04,8.65-3.64.02s-.08-15.24-.08-15.24Z"/>
          <path class="cls-1" d="M35.79,0c1.05,0,1.9.78,1.91,1.83,0,1.05-.84,1.84-1.89,1.85-1.05,0-1.9-.78-1.91-1.83s.83-1.85,1.89-1.85ZM37.67,17.07l-3.61.02-.06-11.98,3.61-.02.06,11.98Z"/>
          <path class="cls-1" d="M48.88,7.74l-5.37.03c-.58,0-.78,0-.78.36v.31c0,.39.19.43.42.47l2.71.5c2.48.42,3.78.56,3.8,3.2v.72c.02,2.83-1.42,3.81-4.19,3.82-3.37.02-6.47-.36-6.47-.36v-2.54l5.67-.03c1.09,0,1.49-.15,1.48-.79v-.33c0-.33-.19-.47-1.37-.67-.95-.16-2.5-.4-3.37-.56-1.49-.3-2.3-.73-2.31-2.69v-.95c-.02-2.83,1.36-3.27,4.15-3.28,3.37-.02,5.64.2,5.64.2v2.6h0Z"/>
          <path class="cls-1" d="M49.96,5.01h1.63v-2.47s3.63-.02,3.63-.02v2.46l3.13-.02v2.93l-3.1.02.03,5.41c0,.6.25.89.83.88.14,0,2.44-.03,2.44-.03l-.03,2.38s-2.35.53-3.78.54c-2.62.01-3.09-1.62-3.1-3.5l-.03-5.66h-1.63v-2.92h-.02Z"/>
          <path class="cls-1" d="M63.26,16.94l-3.61.02-.08-15.24,3.61-.02.08,15.24Z"/>
          <path class="cls-1" d="M75.1,16.57s-2.83.43-6.17.44c-2.77.01-4.16-.72-4.17-3.7l-.02-4.59c-.01-2.15,1.47-3.81,4.24-3.82h2.71c2.79-.03,4.18,1.62,4.19,3.77l.02,3.39c0,.23,0,.29-.21.29l-7.31.04v.7c0,.97.24,1.09,1.14,1.09l5.64-.03-.05,2.42h-.01ZM72.46,9.05c0-1.26-.44-1.48-1.37-1.48h-1.28c-.93.01-1.47.22-1.46,1.5v.99l4.11-.08s0-.93,0-.93Z"/>
          <path class="cls-1" d="M9.95,30.97s-2.41.43-5.76.44c-2.77.01-4.16-.83-4.17-3.8L0,23.05c-.02-2.99,1.36-3.83,4.13-3.84,3.37-.02,5.76.22,5.76.22v2.69l-5.15.03c-.78,0-1.13.32-1.13,1.08l.02,4.17c0,.78.36,1.09,1.14,1.09l5.16-.03v2.52h.02Z"/>
          <path class="cls-1" d="M22.38,22.97l.02,4.44c.01,2.97-1.36,3.93-4.15,3.95l-3.18.02c-2.77.01-4.16-.93-4.17-3.9l-.02-4.44c-.02-2.99,1.36-3.93,4.13-3.95l3.18-.02c2.79-.01,4.18.91,4.19,3.9ZM17.88,20.81l-3.53,3.53c-1.05,1.05-1.09,2.76-.06,3.83-.09.04-.18.1-.26.18-.34.34-.34.89,0,1.23s.89.34,1.23,0c.19-.19.27-.44.25-.68.91.25,1.93.02,2.64-.69.89-.89,1.03-2.26.41-3.3-.1-.22-.32-.82-.18-1.57.12-.68.47-1.14.67-1.36.04-.05.04-.12,0-.16l-1-1s-.12-.05-.16,0h-.01ZM17.25,27.35c-.57.57-1.51.57-2.08,0s-.57-1.51,0-2.08,1.51-.57,2.08,0,.57,1.51,0,2.08Z"/>
          <path class="cls-1" d="M23.81,19.23l3.64-.02v.81c.91-.48,2.04-.94,2.97-.94h.5c2.69-.02,4.05.68,4.07,3.61l.04,8.47-3.64.02-.04-8.1c0-.78-.36-1.03-1.12-1.03h-.39c-.68,0-1.44.28-2.37.47l.04,8.67-3.64.02-.06-11.98Z"/>
          <path class="cls-1" d="M36.43,19.16l3.64-.02v.81c.91-.48,2.04-.94,2.97-.94h.5c2.69-.02,4.05.68,4.07,3.61l.04,8.47-3.64.02-.04-8.1c0-.78-.36-1.03-1.12-1.03h-.39c-.68,0-1.44.28-2.37.47l.04,8.67-3.64.02-.06-11.98Z"/>
          <path class="cls-1" d="M59.31,30.72s-2.83.43-6.17.44c-2.77.01-4.16-.72-4.17-3.7l-.02-4.59c-.01-2.15,1.47-3.81,4.24-3.82h2.71c2.79-.03,4.18,1.62,4.19,3.77l.02,3.39c0,.23,0,.29-.2.29l-7.31.04v.7c0,.97.24,1.09,1.15,1.09l5.64-.03-.05,2.42h-.03ZM56.67,23.19c0-1.26-.44-1.48-1.37-1.48h-1.28c-.93.01-1.47.22-1.46,1.5v.99l4.11-.08v-.93Z"/>
          <path class="cls-1" d="M71.29,30.66s-2.41.43-5.76.44c-2.77.01-4.16-.83-4.17-3.8l-.02-4.56c-.02-2.99,1.36-3.83,4.13-3.84,3.37-.02,5.76.22,5.76.22v2.69l-5.15.03c-.78,0-1.13.32-1.13,1.08l.02,4.17c0,.78.36,1.09,1.14,1.09l5.16-.03v2.52h.02Z"/>
          <path class="cls-1" d="M71.73,18.96h1.63v-2.47s3.63-.02,3.63-.02v2.46l3.13-.02v2.93l-3.1.02.03,5.41c0,.6.25.89.83.88.14,0,2.44-.03,2.44-.03l-.03,2.38s-2.35.53-3.78.54c-2.62.01-3.09-1.62-3.1-3.5l-.03-5.66h-1.63v-2.92s-.02,0-.02,0Z"/>
        </g>
        <g>
          <path class="cls-1" d="M4.49,42.26l-.02-4.52h.85l.02,4.52h-.85ZM4.78,38.56v-.82h2.66s0,.81,0,.81h-2.66ZM4.79,40.47v-.82h2.31s0,.81,0,.81h-2.31Z"/>
          <path class="cls-1" d="M7.43,42.25l1.71-4.53h.54l1.75,4.51h-.92l-1.1-3.08-1.07,3.1h-.92,0ZM8.26,41.52v-.82h2.38s0,.81,0,.81h-2.38Z"/>
          <path class="cls-1" d="M13.96,42.22l-.02-4.53h.85l.02,4.52h-.85ZM14.29,40.39v-.82h1.57c.13,0,.24-.05.32-.15.08-.1.12-.23.12-.39s-.04-.29-.12-.39c-.08-.1-.19-.15-.32-.14h-1.57v-.81h1.64c.25,0,.47.05.66.16s.33.27.44.47c.1.2.16.44.16.71s-.05.51-.15.71c-.1.2-.25.36-.43.48s-.4.17-.66.17h-1.66ZM16.35,42.2l-1.11-1.95.91-.15,1.23,2.1s-1.03,0-1.03,0Z"/>
          <path class="cls-1" d="M19.44,42.24c-.47,0-.83-.12-1.09-.37-.26-.25-.39-.61-.39-1.07v-.36c0-.48.12-.85.36-1.12.25-.26.6-.4,1.05-.4s.76.15.99.47c.23.31.35.75.36,1.33v.21h-2.21s0-.57,0-.57h1.43v-.07c-.03-.18-.09-.33-.19-.43-.09-.1-.22-.15-.38-.15-.21,0-.36.06-.48.19-.11.12-.17.3-.17.52v.41c0,.22.07.39.19.51s.3.18.52.18c.11,0,.23-.02.34-.06.11-.04.21-.1.3-.17l.56.49c-.17.15-.36.27-.56.36-.21.09-.42.13-.63.13v-.03Z"/>
          <path class="cls-1" d="M21.34,39.68v-.73h1.74v.73h-1.74ZM21.69,42.18l-.02-3.67c0-.28.06-.5.19-.64.13-.14.33-.22.61-.22h.59v.76h-.36c-.06,0-.11.03-.14.08s-.04.11-.04.17l.02,3.52h-.85Z"/>
          <path class="cls-1" d="M25.04,42.21c-.47,0-.83-.12-1.09-.37-.26-.25-.39-.61-.39-1.07v-.36c0-.48.12-.85.36-1.12.25-.26.6-.4,1.05-.4s.76.15.99.47c.23.31.35.75.36,1.33v.21h-2.21s0-.57,0-.57h1.43v-.07c-.03-.18-.09-.33-.19-.43-.09-.1-.22-.15-.38-.15-.21,0-.36.06-.48.19-.11.12-.17.3-.17.52v.41c0,.22.07.39.19.51s.3.18.52.18c.11,0,.23-.02.34-.06.11-.04.21-.1.3-.17l.56.49c-.17.15-.36.27-.56.36-.21.09-.42.13-.63.13v-.03Z"/>
          <path class="cls-1" d="M27.19,42.15l-.02-3.23h.91l.02,3.23h-.91ZM29,39.81s-.09-.07-.15-.09c-.06-.02-.13-.03-.21-.03-.17,0-.31.06-.4.17-.09.11-.14.27-.14.46l-.07-.84c.09-.19.2-.34.34-.45s.3-.16.47-.16c.13,0,.26.02.37.06s.2.1.29.19l-.49.7h-.01Z"/>
          <path class="cls-1" d="M31.36,42.18c-.47,0-.83-.12-1.09-.37-.26-.25-.39-.61-.39-1.07v-.36c0-.48.12-.85.36-1.12.25-.26.6-.4,1.05-.4s.76.15.99.47c.23.31.35.75.36,1.33v.21h-2.21s0-.57,0-.57h1.43v-.07c-.03-.18-.09-.33-.19-.43-.09-.1-.22-.15-.38-.15-.21,0-.36.06-.48.19-.11.12-.17.3-.17.52v.41c0,.22.07.39.19.51s.3.18.52.18c.11,0,.23-.02.34-.06.11-.04.21-.1.3-.17l.56.49c-.17.15-.36.27-.56.36-.21.09-.42.13-.63.13v-.03Z"/>
          <path class="cls-1" d="M34.91,42.16c-.47,0-.83-.12-1.09-.37-.26-.25-.39-.61-.39-1.07v-.36c0-.48.12-.85.36-1.12.25-.26.6-.4,1.05-.4s.76.15.99.47c.23.31.35.75.36,1.33v.21h-2.21s0-.57,0-.57h1.43v-.07c-.03-.18-.09-.33-.19-.43-.09-.1-.22-.15-.38-.15-.21,0-.36.06-.48.19-.11.12-.17.3-.17.52v.41c0,.22.07.39.19.51s.3.18.52.18c.11,0,.23-.02.34-.06.11-.04.21-.1.3-.17l.56.49c-.17.15-.36.27-.56.36-.21.09-.42.13-.63.13v-.03Z"/>
          <path class="cls-1" d="M40.95,40.61l.85-3.05h1.12l.02,4.52h-.77l-.02-3.51.03.2-.85,2.81h-.75l-.88-2.74.03-.26.02,3.51h-.77l-.02-4.52h1.12l.88,3.04h-.01Z"/>
          <path class="cls-1" d="M44.88,42.11c-.34,0-.6-.08-.78-.24s-.26-.41-.26-.75.09-.56.28-.72.48-.24.86-.24h.81l.05.65h-.85c-.13,0-.22.03-.29.08-.06.05-.1.13-.1.23s.04.18.12.23.2.08.37.07c.23,0,.4-.03.51-.08.11-.05.17-.13.17-.24l.07.47c-.01.12-.07.22-.16.3s-.22.14-.36.18-.29.06-.44.06ZM45.78,42.06v-2.05c-.01-.15-.06-.26-.16-.34-.1-.08-.24-.12-.42-.12-.12,0-.24.02-.36.06s-.22.09-.31.17l-.53-.52c.13-.15.3-.26.51-.35.21-.08.45-.13.7-.13.43,0,.75.1.99.31s.35.5.35.89v2.08h-.77Z"/>
          <path class="cls-1" d="M47.52,42.05l-.02-3.23h.85l.02,3.23h-.85ZM49.39,42.04v-1.96c-.01-.16-.06-.28-.15-.37-.09-.09-.22-.13-.38-.13s-.28.05-.36.13c-.09.09-.13.21-.13.37l-.07-.72c.09-.2.21-.35.34-.45.13-.11.31-.16.52-.16.34,0,.6.11.79.34s.28.55.28.97v1.96h-.84v.02Z"/>
          <path class="cls-1" d="M52.08,42.07c-.34,0-.6-.08-.78-.24s-.26-.41-.26-.75.09-.56.28-.72.48-.24.86-.24h.81l.05.65h-.85c-.13,0-.22.03-.29.08-.06.05-.1.13-.1.23s.04.18.12.23.2.08.37.07c.23,0,.4-.03.51-.08.11-.05.17-.13.17-.24l.07.47c-.01.12-.07.22-.16.3s-.22.14-.36.18-.29.06-.44.06ZM52.98,42.02v-2.05c-.01-.15-.06-.26-.16-.34-.1-.08-.24-.12-.42-.12-.12,0-.24.02-.36.06s-.22.09-.31.17l-.53-.52c.13-.15.3-.26.51-.35.21-.08.45-.13.7-.13.43,0,.75.1.99.31s.35.5.35.89v2.08h-.77Z"/>
          <path class="cls-1" d="M55.72,42.05c-.34,0-.61-.12-.8-.36s-.29-.59-.29-1.03v-.52c0-.45.09-.8.28-1.04.19-.25.46-.37.8-.37.17,0,.33.05.47.15.14.1.26.25.35.44l-.06.72c0-.11-.02-.2-.06-.28-.04-.08-.09-.13-.16-.18-.07-.04-.16-.06-.26-.06-.16,0-.28.06-.37.17-.09.11-.13.26-.13.46v.51c0,.19.05.34.14.45s.21.16.37.16c.1,0,.19-.02.26-.06s.13-.1.16-.17.06-.17.05-.27l.05.74c-.06.18-.16.31-.3.41s-.3.15-.49.15v-.02ZM55.88,43.32c-.26,0-.49-.04-.69-.13-.2-.09-.36-.22-.47-.38l.57-.53c.07.08.16.14.26.18s.21.06.32.06c.17,0,.32-.05.43-.15s.17-.23.17-.41l-.02-3.2h.85l.02,3.13c0,.45-.12.8-.37,1.04-.25.25-.61.37-1.07.37v.02Z"/>
          <path class="cls-1" d="M59.67,42.03c-.47,0-.83-.12-1.09-.37-.26-.25-.39-.61-.39-1.07v-.36c0-.48.12-.85.36-1.12.25-.26.6-.4,1.05-.4s.76.15.99.47c.23.31.35.75.36,1.33v.21h-2.21s0-.57,0-.57h1.43v-.07c-.03-.18-.09-.33-.19-.43-.09-.1-.22-.15-.38-.15-.21,0-.36.06-.48.19-.11.12-.17.3-.17.52v.41c0,.22.07.39.19.51s.3.18.52.18c.11,0,.23-.02.34-.06.11-.04.21-.1.3-.17l.56.49c-.17.15-.36.27-.56.36-.21.09-.42.13-.63.13v-.03Z"/>
          <path class="cls-1" d="M61.83,41.98l-.02-3.23h.85l.02,3.23h-.85ZM63.71,41.97v-1.86c-.01-.19-.06-.33-.15-.44-.09-.1-.23-.15-.4-.15-.16,0-.28.05-.36.13-.09.09-.13.21-.13.37l-.07-.72c.09-.2.21-.35.35-.45.14-.11.31-.16.51-.16.35,0,.61.12.8.36s.29.59.29,1.04v1.87h-.84ZM65.6,41.96v-1.86c-.01-.19-.06-.33-.15-.44-.09-.1-.22-.15-.38-.15s-.29.05-.38.15c-.09.1-.13.24-.13.42l-.16-.75c.1-.21.23-.36.4-.48.16-.11.34-.17.54-.17.35,0,.62.12.82.36.19.24.29.59.29,1.04v1.87h-.85Z"/>
          <path class="cls-1" d="M68.8,41.99c-.47,0-.83-.12-1.09-.37-.26-.25-.39-.61-.39-1.07v-.36c0-.48.12-.85.36-1.12.25-.26.6-.4,1.05-.4s.76.15.99.47c.23.31.35.75.36,1.33v.21h-2.21s0-.57,0-.57h1.43v-.07c-.03-.18-.09-.33-.19-.43-.09-.1-.22-.15-.38-.15-.21,0-.36.06-.48.19-.11.12-.17.3-.17.52v.41c0,.22.07.39.19.51s.3.18.52.18c.11,0,.23-.02.34-.06.11-.04.21-.1.3-.17l.56.49c-.17.15-.36.27-.56.36-.21.09-.42.13-.63.13v-.03Z"/>
          <path class="cls-1" d="M70.96,41.93l-.02-3.23h.85l.02,3.23h-.85ZM72.83,41.92v-1.96c-.01-.16-.06-.28-.15-.37-.09-.09-.22-.13-.38-.13s-.28.05-.36.13-.13.21-.13.37l-.07-.72c.09-.2.21-.35.34-.45.13-.11.31-.16.52-.16.34,0,.6.11.79.34s.28.55.28.97v1.96h-.84v.02Z"/>
          <path class="cls-1" d="M74.39,39.41v-.73h1.58v.73h-1.58ZM75.55,41.92c-.29,0-.5-.07-.63-.22s-.19-.36-.2-.63l-.02-3.33h.85l.02,3.11c0,.08.02.14.05.18s.08.07.14.06h.21v.82h-.43,0Z"/>
        </g>
      </g>
    </g>
  </g>
</svg>